<mxfile host="app.diagrams.net" agent="Mozilla/5.0 (Windows NT 10.0; Win64; x64) AppleWebKit/537.36 (KHTML, like Gecko) Chrome/131.0.0.0 Safari/537.36 Edg/131.0.0.0" version="25.0.1">
  <diagram name="Page-1" id="usTyG5tO6Qd0_uaiXaXl">
    <mxGraphModel dx="1947" dy="1695" grid="1" gridSize="10" guides="1" tooltips="1" connect="1" arrows="1" fold="1" page="1" pageScale="1" pageWidth="850" pageHeight="1100" math="0" shadow="0">
      <root>
        <mxCell id="0" />
        <mxCell id="1" parent="0" />
        <mxCell id="njQjWB7X4-TD7ChdRQaa-5" value="" style="edgeStyle=orthogonalEdgeStyle;rounded=0;orthogonalLoop=1;jettySize=auto;html=1;" edge="1" parent="1" source="njQjWB7X4-TD7ChdRQaa-2">
          <mxGeometry relative="1" as="geometry">
            <mxPoint x="-679.9714285714286" y="-950" as="targetPoint" />
          </mxGeometry>
        </mxCell>
        <mxCell id="njQjWB7X4-TD7ChdRQaa-2" value="&lt;font data-font-src=&quot;https://fonts.googleapis.com/css?family=Sarabun&quot; face=&quot;Sarabun&quot;&gt;Start&lt;/font&gt;" style="ellipse;whiteSpace=wrap;html=1;" vertex="1" parent="1">
          <mxGeometry x="-745.0000000000001" y="-1010" width="130" height="30" as="geometry" />
        </mxCell>
        <mxCell id="njQjWB7X4-TD7ChdRQaa-7" value="" style="edgeStyle=orthogonalEdgeStyle;rounded=0;orthogonalLoop=1;jettySize=auto;html=1;" edge="1" parent="1" source="njQjWB7X4-TD7ChdRQaa-4" target="njQjWB7X4-TD7ChdRQaa-6">
          <mxGeometry relative="1" as="geometry" />
        </mxCell>
        <mxCell id="njQjWB7X4-TD7ChdRQaa-4" value="กำหนดตัวแปร num 1" style="rounded=0;whiteSpace=wrap;html=1;" vertex="1" parent="1">
          <mxGeometry x="-760" y="-880" width="160" height="40" as="geometry" />
        </mxCell>
        <mxCell id="njQjWB7X4-TD7ChdRQaa-9" value="" style="edgeStyle=orthogonalEdgeStyle;rounded=0;orthogonalLoop=1;jettySize=auto;html=1;" edge="1" parent="1" source="njQjWB7X4-TD7ChdRQaa-6" target="njQjWB7X4-TD7ChdRQaa-8">
          <mxGeometry relative="1" as="geometry" />
        </mxCell>
        <mxCell id="njQjWB7X4-TD7ChdRQaa-6" value="กำหนดตัวแปร num 2" style="rounded=0;whiteSpace=wrap;html=1;" vertex="1" parent="1">
          <mxGeometry x="-760" y="-810" width="160" height="40" as="geometry" />
        </mxCell>
        <mxCell id="njQjWB7X4-TD7ChdRQaa-16" style="edgeStyle=orthogonalEdgeStyle;rounded=0;orthogonalLoop=1;jettySize=auto;html=1;entryX=0.5;entryY=0;entryDx=0;entryDy=0;" edge="1" parent="1" source="njQjWB7X4-TD7ChdRQaa-8" target="njQjWB7X4-TD7ChdRQaa-11">
          <mxGeometry relative="1" as="geometry" />
        </mxCell>
        <mxCell id="njQjWB7X4-TD7ChdRQaa-8" value="กำหนดตัวแปร num 3" style="rounded=0;whiteSpace=wrap;html=1;" vertex="1" parent="1">
          <mxGeometry x="-760" y="-740" width="160" height="40" as="geometry" />
        </mxCell>
        <mxCell id="njQjWB7X4-TD7ChdRQaa-10" value="" style="edgeStyle=orthogonalEdgeStyle;rounded=0;orthogonalLoop=1;jettySize=auto;html=1;" edge="1" source="njQjWB7X4-TD7ChdRQaa-11" target="njQjWB7X4-TD7ChdRQaa-13" parent="1">
          <mxGeometry relative="1" as="geometry" />
        </mxCell>
        <mxCell id="njQjWB7X4-TD7ChdRQaa-11" value="กรอกค่าตัวแปร num 1" style="rounded=0;whiteSpace=wrap;html=1;" vertex="1" parent="1">
          <mxGeometry x="-760" y="-670" width="160" height="40" as="geometry" />
        </mxCell>
        <mxCell id="njQjWB7X4-TD7ChdRQaa-12" value="" style="edgeStyle=orthogonalEdgeStyle;rounded=0;orthogonalLoop=1;jettySize=auto;html=1;" edge="1" source="njQjWB7X4-TD7ChdRQaa-13" target="njQjWB7X4-TD7ChdRQaa-14" parent="1">
          <mxGeometry relative="1" as="geometry" />
        </mxCell>
        <mxCell id="njQjWB7X4-TD7ChdRQaa-13" value="กรอกค่าตัวแปร num 2" style="rounded=0;whiteSpace=wrap;html=1;" vertex="1" parent="1">
          <mxGeometry x="-760" y="-600" width="160" height="40" as="geometry" />
        </mxCell>
        <mxCell id="njQjWB7X4-TD7ChdRQaa-32" value="" style="edgeStyle=orthogonalEdgeStyle;rounded=0;orthogonalLoop=1;jettySize=auto;html=1;" edge="1" parent="1" source="njQjWB7X4-TD7ChdRQaa-14" target="njQjWB7X4-TD7ChdRQaa-31">
          <mxGeometry relative="1" as="geometry" />
        </mxCell>
        <mxCell id="njQjWB7X4-TD7ChdRQaa-14" value="กรอกค่าตัวแปร num 3" style="rounded=0;whiteSpace=wrap;html=1;" vertex="1" parent="1">
          <mxGeometry x="-760" y="-530" width="160" height="40" as="geometry" />
        </mxCell>
        <mxCell id="njQjWB7X4-TD7ChdRQaa-19" value="" style="edgeStyle=orthogonalEdgeStyle;rounded=0;orthogonalLoop=1;jettySize=auto;html=1;" edge="1" parent="1" source="njQjWB7X4-TD7ChdRQaa-17" target="njQjWB7X4-TD7ChdRQaa-18">
          <mxGeometry relative="1" as="geometry" />
        </mxCell>
        <mxCell id="njQjWB7X4-TD7ChdRQaa-17" value="Start cal" style="shape=process;whiteSpace=wrap;html=1;backgroundOutline=1;" vertex="1" parent="1">
          <mxGeometry x="-210" y="-940" width="120" height="50" as="geometry" />
        </mxCell>
        <mxCell id="njQjWB7X4-TD7ChdRQaa-21" value="" style="edgeStyle=orthogonalEdgeStyle;rounded=0;orthogonalLoop=1;jettySize=auto;html=1;" edge="1" parent="1" source="njQjWB7X4-TD7ChdRQaa-18" target="njQjWB7X4-TD7ChdRQaa-20">
          <mxGeometry relative="1" as="geometry" />
        </mxCell>
        <mxCell id="njQjWB7X4-TD7ChdRQaa-18" value="sum = num1 + num2 +num3" style="rounded=0;whiteSpace=wrap;html=1;" vertex="1" parent="1">
          <mxGeometry x="-230" y="-850" width="160" height="40" as="geometry" />
        </mxCell>
        <mxCell id="njQjWB7X4-TD7ChdRQaa-26" value="" style="edgeStyle=orthogonalEdgeStyle;rounded=0;orthogonalLoop=1;jettySize=auto;html=1;" edge="1" parent="1" source="njQjWB7X4-TD7ChdRQaa-20" target="njQjWB7X4-TD7ChdRQaa-25">
          <mxGeometry relative="1" as="geometry" />
        </mxCell>
        <mxCell id="njQjWB7X4-TD7ChdRQaa-20" value="&lt;font face=&quot;Consolas, Courier New, monospace&quot;&gt;&lt;span style=&quot;font-size: 14px; white-space: pre;&quot;&gt;return sum &lt;/span&gt;&lt;/font&gt;" style="rounded=0;whiteSpace=wrap;html=1;" vertex="1" parent="1">
          <mxGeometry x="-230" y="-780" width="160" height="40" as="geometry" />
        </mxCell>
        <mxCell id="njQjWB7X4-TD7ChdRQaa-24" style="edgeStyle=orthogonalEdgeStyle;rounded=0;orthogonalLoop=1;jettySize=auto;html=1;entryX=0.5;entryY=0;entryDx=0;entryDy=0;" edge="1" parent="1" source="njQjWB7X4-TD7ChdRQaa-22" target="njQjWB7X4-TD7ChdRQaa-4">
          <mxGeometry relative="1" as="geometry" />
        </mxCell>
        <mxCell id="njQjWB7X4-TD7ChdRQaa-22" value="กำหนดตัวแปร Sum" style="rounded=0;whiteSpace=wrap;html=1;" vertex="1" parent="1">
          <mxGeometry x="-760" y="-950" width="160" height="40" as="geometry" />
        </mxCell>
        <mxCell id="njQjWB7X4-TD7ChdRQaa-25" value="End cal" style="shape=process;whiteSpace=wrap;html=1;backgroundOutline=1;" vertex="1" parent="1">
          <mxGeometry x="-210" y="-700" width="120" height="50" as="geometry" />
        </mxCell>
        <mxCell id="njQjWB7X4-TD7ChdRQaa-30" value="" style="edgeStyle=orthogonalEdgeStyle;rounded=0;orthogonalLoop=1;jettySize=auto;html=1;" edge="1" parent="1" source="njQjWB7X4-TD7ChdRQaa-27" target="njQjWB7X4-TD7ChdRQaa-29">
          <mxGeometry relative="1" as="geometry" />
        </mxCell>
        <mxCell id="njQjWB7X4-TD7ChdRQaa-27" value="ปริ้น Sum" style="rounded=0;whiteSpace=wrap;html=1;shape=parallelogram;perimeter=parallelogramPerimeter;fixedSize=1;" vertex="1" parent="1">
          <mxGeometry x="-760" y="-357" width="160" height="40" as="geometry" />
        </mxCell>
        <mxCell id="njQjWB7X4-TD7ChdRQaa-29" value="&lt;font data-font-src=&quot;https://fonts.googleapis.com/css?family=Sarabun&quot; face=&quot;Sarabun&quot;&gt;End&lt;/font&gt;" style="ellipse;whiteSpace=wrap;html=1;" vertex="1" parent="1">
          <mxGeometry x="-745.0000000000001" y="-277" width="130" height="30" as="geometry" />
        </mxCell>
        <mxCell id="njQjWB7X4-TD7ChdRQaa-33" value="" style="edgeStyle=orthogonalEdgeStyle;rounded=0;orthogonalLoop=1;jettySize=auto;html=1;" edge="1" parent="1" source="njQjWB7X4-TD7ChdRQaa-31" target="njQjWB7X4-TD7ChdRQaa-27">
          <mxGeometry relative="1" as="geometry" />
        </mxCell>
        <mxCell id="njQjWB7X4-TD7ChdRQaa-31" value="cal" style="shape=process;whiteSpace=wrap;html=1;backgroundOutline=1;" vertex="1" parent="1">
          <mxGeometry x="-740" y="-450" width="120" height="50" as="geometry" />
        </mxCell>
      </root>
    </mxGraphModel>
  </diagram>
</mxfile>
